<?xml version="1.0" encoding="utf-8"?>
<!DOCTYPE svg PUBLIC "-//W3C//DTD SVG 1.0//EN" "http://www.w3.org/TR/2001/REC-SVG-20010904/DTD/svg10.dtd">
<svg version="1.0" xmlns="http://www.w3.org/2000/svg" width="406px" height="406px" viewBox="0 0 406 406" preserveAspectRatio="xMidYMid meet">
 <g fill="#3dd2cc">
  <path d="M122.5 368.4 c-2.2 -0.3 -8.6 -1.4 -14.2 -2.5 -36 -7.1 -66.7 -26.6 -87.7 -55.6 l-3.8 -5.3 22.6 0 22.6 0 3.7 3.3 c28.6 25.3 68.7 33.2 107.8 21 12.8 -4 30.4 -12.9 54.5 -27.8 52.5 -32.3 64.9 -36.5 108.3 -36.5 l23.8 0 -0.6 2.3 c-1.6 5.4 -8.6 18.7 -12.9 24.5 l-4.8 6.2 -9.6 0 c-29.9 0 -40 4 -89.2 34.6 -40.6 25.3 -68.3 35.1 -102 35.9 -8 0.2 -16.3 0.1 -18.5 -0.1z"/>
  <path d="M257.5 367.9 c-5.5 -0.5 -13.8 -1.6 -18.5 -2.5 -9.9 -1.8 -26 -6.4 -26 -7.4 0 -0.4 3.1 -2.3 6.8 -4.3 3.8 -1.9 12.6 -6.9 19.6 -11.1 l12.8 -7.6 13.8 0 c17.2 0 27.7 -1.8 42.2 -7.2 28.1 -10.5 49.7 -32.5 58.7 -59.8 4.4 -13.4 4.4 -37.3 0.1 -50.8 -11 -33.9 -41 -58.6 -80 -65.8 -7 -1.2 -12.5 -1.5 -22.1 -1.2 l-12.7 0.6 -17.3 -10.5 c-9.6 -5.7 -18.4 -10.6 -19.7 -10.9 -3.8 -1 -1.9 -2.7 5.9 -5.2 38.5 -12.1 80.6 -9.4 114.4 7.6 13.8 6.9 23 13.6 34.6 25.1 15.9 15.9 25.3 31.3 32.2 52.6 l3.2 10 0 23 0 23 -3.2 10 c-6.9 21.5 -15.7 35.8 -31.8 52.1 -23.7 23.9 -50.1 36 -87 39.9 -8 0.8 -14.8 1.4 -15.2 1.4 -0.4 -0.1 -5.3 -0.6 -10.8 -1z"/>
  <path d="M148.9 323.7 c-3 -1.8 -7.4 -4.6 -9.8 -6.1 -7.9 -5 -25.4 -13.4 -34.1 -16.2 l-8.5 -2.7 -48.2 -0.5 -48.3 -0.4 0 -16.4 0 -16.4 47.9 0 c51.6 0 55.5 0.3 71.8 5.6 8.7 2.8 26.1 11 36.8 17.4 9.4 5.7 29.2 17.9 33.3 20.7 1.8 1.2 3.8 2.4 4.5 2.7 3.7 1.5 -16.3 10.7 -30.6 14 -8.9 2.1 -8.5 2.1 -14.8 -1.7z"/>
  <path d="M402.1 297.3 c0 -0.5 0.9 -2.6 1.9 -4.8 l1.9 -4 0 4.8 c0.1 4.1 -0.2 4.7 -1.9 4.7 -1.1 0 -2 -0.3 -1.9 -0.7z"/>
  <path d="M0 243 l0 -15 18.1 0 18.2 0 -0.6 8.3 c-0.4 4.5 -0.3 11.2 0.1 15 l0.8 6.7 -18.3 0 -18.3 0 0 -15z"/>
  <path d="M0 205.1 l0 -17 48.8 -0.3 48.7 -0.3 9.2 -3.2 c11.2 -3.9 20.8 -8.7 32.8 -16.3 17.4 -10.9 15.3 -10.1 22 -8.4 12 3.1 33.5 11.7 33.5 13.4 0 0.7 -15 10.6 -35.5 23.3 -17.8 11 -36.9 19.3 -53 22.9 -8.2 1.9 -13.4 2.1 -57.7 2.5 l-48.8 0.5 0 -17.1z"/>
  <path d="M310.5 221 c-16.3 -1.7 -35.7 -8.7 -54 -19.3 -3.8 -2.2 -16.9 -10.2 -29.1 -17.8 -25.3 -15.8 -37.8 -22.3 -51.9 -27.2 -39.2 -13.6 -80.4 -6.1 -109.5 19.9 l-6.1 5.4 -21.4 0 c-14.4 0 -21.5 -0.3 -21.5 -1.1 0 -1.5 9.7 -14.3 16 -21.2 12.8 -14 35 -28.1 55 -34.9 32.2 -10.9 65.3 -11 97.5 -0.3 19.9 6.6 31.7 12.7 65.1 33.5 24.6 15.5 37.6 22.5 48.4 26.2 8.9 3 10.5 3.2 26.5 3.6 l17 0.4 2.8 3.2 c3.7 4.2 11.3 18.1 13.7 25 l1.9 5.6 -21.7 -0.1 c-11.9 -0.1 -24.9 -0.5 -28.7 -0.9z"/>
  <path d="M403.8 192.5 c-1.4 -3.5 -1.4 -4 -0.1 -4.3 2.1 -0.5 2.5 0.2 2.1 4.4 l-0.3 3.9 -1.7 -4z"/>
 </g>
</svg>